<?xml version="1.0" encoding="utf-8"?>
<!-- Generator: Adobe Illustrator 23.0.2, SVG Export Plug-In . SVG Version: 6.00 Build 0)  -->
<svg version="1.1" id="Layer_1" xmlns="http://www.w3.org/2000/svg" xmlns:xlink="http://www.w3.org/1999/xlink" x="0px" y="0px"
	 viewBox="0 0 393.5025 260.8893" enable-background="new 0 0 393.5025 260.8893" xml:space="preserve">
<g>
	<path d="M197.1607,91.8543c-0.0195,3.7392-1.4971,7.2471-4.1553,9.8769c-2.6318,2.6075-6.1299,4.045-9.8428,4.045
		c-2.4814,0-4.8545-0.6514-6.9482-1.8536l3.1758,16.3457h204.1123v-4.7695h-26.5723c-10.5381-5.832-35.9639-22.3486-60.9219-57.0469
		c-32.5898-45.3086-57.7461,21.6114-87.0498,25.0743c-4.4062,0.5205-8.4023,1.1611-12.042,1.8974
		c-0.3193,0.2373-0.6386,0.4717-0.9541,0.6992C196.7505,87.9051,197.1724,89.8455,197.1607,91.8543z M272.6636,44.7683
		c7.4277,0,14.5313,4.8584,21.7207,14.8526c0,0,5.2852,6.2656-4.2148,3.7666c-4.1309-1.0869-13-2.667-16.666-2.833
		c-3.6661-0.166-8.5,5.333-10,4.833s-8.167-3.333-10.834-3.5c-2.667-0.167-11.6739,2.7949-11.6739,2.7949
		C251.3169,54.8924,261.9917,44.7683,272.6636,44.7683z"/>
	<path d="M393.5025,204.2722h-19.5957v-16.1406h10.4179v-15.5332h-10.4179v-17.4258h10.4179v-15.5332h-10.4179v-5.9658h-10.2285
		v5.9658h-49.0889v-5.9658h-10.2295v5.9658H255.271v-5.9658h-10.2295v5.9658h-49.0888v-5.9658h-10.2295v5.9658h-2.5694
		l7.5108,38.6534c0.0351-0.002,0.0693-0.0108,0.1055-0.0108c1.1513,0,2.0839,0.9317,2.0839,2.084
		c0,0.9111-0.5898,1.6768-1.4062,1.959l2.1162,10.8926l1.3877,7.1445h-7.2764h-1.9521v3.9101h-13.7149v6.5625h221.4942V204.2722z
		 M363.6783,204.2722h-49.0889v-16.1406h49.0889V204.2722z M250.0884,178.282c1.1504,0,2.084,0.9317,2.084,2.084
		c0,1.1494-0.9336,2.0811-2.084,2.0811c-1.1504,0-2.084-0.9317-2.084-2.0811C248.0044,179.2137,248.938,178.282,250.0884,178.282z
		 M309.4058,178.282c1.1514,0,2.085,0.9317,2.085,2.084c0,1.1494-0.9336,2.0811-2.085,2.0811c-1.1494,0-2.083-0.9317-2.083-2.0811
		C307.3228,179.2137,308.2564,178.282,309.4058,178.282z M304.3599,204.2722H255.271v-16.1406h49.0889V204.2722z M366.6412,180.366
		c0-1.1523,0.9335-2.084,2.083-2.084c1.1513,0,2.0849,0.9317,2.0849,2.084c0,1.1494-0.9336,2.0811-2.0849,2.0811
		C367.5747,182.4471,366.6412,181.5154,366.6412,180.366z M366.6412,147.407c0-1.1523,0.9335-2.084,2.083-2.084
		c1.1513,0,2.0849,0.9317,2.0849,2.084c0,1.1504-0.9336,2.082-2.0849,2.082C367.5747,149.489,366.6412,148.5574,366.6412,147.407z
		 M363.6783,155.1726v17.4258h-49.0889v-17.4258H363.6783z M307.3228,147.407c0-1.1523,0.9336-2.084,2.083-2.084
		c1.1514,0,2.085,0.9317,2.085,2.084c0,1.1504-0.9336,2.082-2.085,2.082C308.2564,149.489,307.3228,148.5574,307.3228,147.407z
		 M304.3599,155.1726v17.4258H255.271v-17.4258H304.3599z M248.0044,147.407c0-1.1523,0.9336-2.084,2.084-2.084
		c1.1504,0,2.084,0.9317,2.084,2.084c0,1.1504-0.9336,2.082-2.084,2.082C248.938,149.489,248.0044,148.5574,248.0044,147.407z
		 M192.854,147.407c0,1.1504-0.9326,2.082-2.0839,2.082c-1.1504,0-2.084-0.9316-2.084-2.082c0-1.1523,0.9336-2.084,2.084-2.084
		C191.9214,145.323,192.854,146.2547,192.854,147.407z M195.9527,155.1726h49.0888v17.4258h-49.0888V155.1726z M195.9527,188.1316
		h49.0888v16.1406h-49.0888V188.1316z"/>
	<rect x="33.0025" y="204.2722" width="14.0137" height="6.5625"/>
	<path d="M223.6158,45.3289c1.8086-3.1006,0.7617-7.0811-2.337-8.8887c-3.1005-1.8105-7.081-0.7637-8.8906,2.3369
		c-12.1728,20.8174-24.7226,31.0264-34.3467,36.2071c-0.0712,0.038-0.1386,0.0703-0.2099,0.1084
		c4.0742,2.3974,7.8183,5.2353,11.2158,8.4892C199.8462,76.6697,212.19,64.9226,223.6158,45.3289z"/>
	<path d="M142.6744,196.36h-20v54.5293c0,5.5235,4.4765,10,10,10c5.5214,0,10-4.4765,10-10V196.36z"/>
	<path d="M166.0083,196.36h-20v54.5293c0,5.5235,4.4756,10,10,10c5.5196,0,10-4.4765,10-10V196.36z"/>
	<path d="M53.0162,86.4471v162.0791c0,6.83,5.5371,12.3632,12.3632,12.3632c6.8282,0,12.3653-5.5332,12.3653-12.3632v-90.2715
		h4.6347v90.2715c0,6.83,5.5371,12.3632,12.3633,12.3632c6.8281,0,12.3652-5.5332,12.3652-12.3632V196.36h-6.0996h-2.4257
		l0.4609-2.3808l8.0644-41.5117v-1.9414v-18.9395V88.2039c2.8252-0.8408,6.668-1.8623,11.1592-2.751
		c-2.455,1.7725-5.1259,4.1358-7.834,7.3057c-0.4414,0.5136-0.8828,1.0547-1.3252,1.6094v26.7119
		c3.1319-8.1153,6.5088-13.8672,9.6182-17.916l-17.7178,91.1962h86.667L168.0191,93.1902l-1.3496-3.7295
		c3.8769,2.0147,7.5019,4.6084,10.8037,7.9405c1.5644,1.582,3.626,2.375,5.6894,2.375c2.0323,0,4.0655-0.7696,5.6241-2.3106
		c3.1416-3.1084,3.1699-8.1738,0.0625-11.3144c-7.2793-7.3672-15.8379-12.126-24.5313-14.959
		c-0.832-0.2715-1.667-0.5117-2.5019-0.75c-4.3272,4.8213-10.5821,7.7558-17.4561,7.7558c-1.7891,0-3.5879-0.209-5.3457-0.6162
		c-5.6865-1.3252-10.5566-4.6543-13.8809-9.4013c-13.1699,1.5527-23.5136,4.8837-27.3388,6.2246H63.5913
		c-1.4853-1.1348-3.7578-2.9541-6.5908-5.4688C46.6109,59.7166,28.7671,41.1912,15.2046,13.073
		C13.2828,9.0935,8.4996,7.4275,4.521,9.3504c-3.9775,1.9218-5.6445,6.7051-3.7226,10.6836
		c15.0898,31.1787,34.7646,51.3984,46.25,61.459C49.4224,83.5721,51.4556,85.2303,53.0162,86.4471z"/>
	<path d="M83.732,68.4041c10.6806-1.7529,18.8291-11.0205,18.8291-22.1973c0-12.4267-10.0723-22.5-22.5-22.5
		c-12.4258,0-22.5,10.0733-22.5,22.5c0,11.1768,8.1504,20.4444,18.8301,22.1973c1.1943,0.1963,2.4199,0.3027,3.6699,0.3027
		S82.5367,68.6004,83.732,68.4041z"/>
	<path d="M165.2759,59.573c2.6924-11.5625-4.498-23.1172-16.0586-25.8105c-11.5625-2.6914-23.1172,4.5-25.8105,16.0605
		c-2.6934,11.5625,4.498,23.1192,16.0605,25.8106C151.0298,78.325,162.5845,71.1355,165.2759,59.573z"/>
	<path d="M314.8091,29.0916c0,0-12.916-6.834-15.2695,3.6221c5.1504-4.5069,13.4775-0.7774,16.4609,0.9941
		c1.753-2.9932,7.2364-10.2852,13.9239-8.835C322.8062,16.8601,314.8091,29.0916,314.8091,29.0916z"/>
	<path d="M345.5747,42.3201c0,0-12.9179-6.835-15.2695,3.6221c5.1504-4.5078,13.4766-0.7764,16.46,0.9961
		c1.7529-2.9942,7.2373-10.2871,13.9248-8.836C353.5718,30.0896,345.5747,42.3201,345.5747,42.3201z"/>
	<path d="M365.6119,2.7224c-7.1172-8.0146-15.1153,4.2188-15.1153,4.2188s-12.917-6.835-15.2685,3.6221
		c5.1504-4.5078,13.4765-0.7774,16.4599,0.9941C353.44,8.5633,358.9234,1.2703,365.6119,2.7224z"/>
</g>
</svg>
