<?xml version="1.0" encoding="UTF-8" standalone="no"?> <svg width="64" height="64" viewBox="0 0 64 64" fill="none" xmlns="http://www.w3.org/2000/svg">
<path d="M32 27C23 27 11 35 11 35H53C53 35 41 27 32 27Z" fill="white"/>
<path d="M21 56.2V57H43V56.2C46.1824 54.4648 48.9099 52.0025 50.9604 49.0136C53.011 46.0247 54.3265 42.5937 54.7999 39H9.19995C9.67336 42.5937 10.9889 46.0247 13.0395 49.0136C15.09 52.0025 17.8175 54.4648 21 56.2V56.2Z" fill="#B52424"/>
<path d="M11 35H9V36C9.00173 37.0033 9.06854 38.0054 9.2 39H54.8C54.9315 38.0054 54.9983 37.0033 55 36V35H11Z" fill="#B52424"/>
<path d="M43 57H20V61H43V57Z" fill="#A62121"/>
<path d="M32 54C35.3137 54 38 51.3137 38 48C38 44.6863 35.3137 42 32 42C28.6863 42 26 44.6863 26 48C26 51.3137 28.6863 54 32 54Z" fill="#F5B461"/>
<path d="M28 27.444V3H32V27" fill="#F5B461"/>
<path d="M37.084 27.689L40.564 3.81199L36.606 3.23499L33.136 27.04" fill="#F5B461"/>
<path d="M14 39V35H8V36C8.006 40.1335 9.12302 44.1894 11.2341 47.7431C13.3453 51.2968 16.3729 54.2177 20 56.2V57H32C27.2261 57 22.6477 55.1036 19.2721 51.7279C15.8964 48.3523 14 43.7739 14 39V39Z" fill="#A62121"/>
<path d="M49.686 33H24.447C24.2213 32.9982 24.0029 32.9202 23.8272 32.7785C23.6515 32.6369 23.5289 32.44 23.4793 32.2198C23.4297 31.9996 23.456 31.7691 23.554 31.5658C23.652 31.3625 23.8159 31.1984 24.019 31.1L32.631 27.021C32.42 27.009 32.208 27 32 27C23 27 11 35 11 35H53C53 35 51.718 34.147 49.686 33Z" fill="#FFF8F5"/>
<path d="M36.096 27.527L37.662 3.38899L36.606 3.23499L33.136 27.04L36.096 27.527Z" fill="#F5AC4E"/>
<path d="M28 21.333V27.444L32 27V3H30.115L28 21.333Z" fill="#F5AC4E"/>
<path d="M26 30.5H25C24.8674 30.5 24.7402 30.5527 24.6464 30.6464C24.5527 30.7402 24.5 30.8674 24.5 31C24.5 31.1326 24.5527 31.2598 24.6464 31.3536C24.7402 31.4473 24.8674 31.5 25 31.5H26C26.1326 31.5 26.2598 31.4473 26.3536 31.3536C26.4473 31.2598 26.5 31.1326 26.5 31C26.5 30.8674 26.4473 30.7402 26.3536 30.6464C26.2598 30.5527 26.1326 30.5 26 30.5Z" fill="#FFF8F5"/>
<path d="M30 31.5H29C28.8674 31.5 28.7402 31.5527 28.6464 31.6464C28.5527 31.7402 28.5 31.8674 28.5 32C28.5 32.1326 28.5527 32.2598 28.6464 32.3536C28.7402 32.4473 28.8674 32.5 29 32.5H30C30.1326 32.5 30.2598 32.4473 30.3536 32.3536C30.4473 32.2598 30.5 32.1326 30.5 32C30.5 31.8674 30.4473 31.7402 30.3536 31.6464C30.2598 31.5527 30.1326 31.5 30 31.5Z" fill="#FFF8F5"/>
<path d="M40 32.5H39C38.8674 32.5 38.7402 32.5527 38.6464 32.6464C38.5527 32.7402 38.5 32.8674 38.5 33C38.5 33.1326 38.5527 33.2598 38.6464 33.3536C38.7402 33.4473 38.8674 33.5 39 33.5H40C40.1326 33.5 40.2598 33.4473 40.3536 33.3536C40.4473 33.2598 40.5 33.1326 40.5 33C40.5 32.8674 40.4473 32.7402 40.3536 32.6464C40.2598 32.5527 40.1326 32.5 40 32.5Z" fill="#FFF8F5"/>
<path d="M38 29.5H37C36.8674 29.5 36.7402 29.5527 36.6464 29.6464C36.5527 29.7402 36.5 29.8674 36.5 30C36.5 30.1326 36.5527 30.2598 36.6464 30.3536C36.7402 30.4473 36.8674 30.5 37 30.5H38C38.1326 30.5 38.2598 30.4473 38.3536 30.3536C38.4473 30.2598 38.5 30.1326 38.5 30C38.5 29.8674 38.4473 29.7402 38.3536 29.6464C38.2598 29.5527 38.1326 29.5 38 29.5Z" fill="#FFF8F5"/>
<path d="M21 32.5H20C19.8674 32.5 19.7402 32.5527 19.6464 32.6464C19.5527 32.7402 19.5 32.8674 19.5 33C19.5 33.1326 19.5527 33.2598 19.6464 33.3536C19.7402 33.4473 19.8674 33.5 20 33.5H21C21.1326 33.5 21.2598 33.4473 21.3536 33.3536C21.4473 33.2598 21.5 33.1326 21.5 33C21.5 32.8674 21.4473 32.7402 21.3536 32.6464C21.2598 32.5527 21.1326 32.5 21 32.5Z" fill="#FFF8F5"/>
<path d="M32 28.5H31C30.8674 28.5 30.7402 28.5527 30.6464 28.6464C30.5527 28.7402 30.5 28.8674 30.5 29C30.5 29.1326 30.5527 29.2598 30.6464 29.3536C30.7402 29.4473 30.8674 29.5 31 29.5H32C32.1326 29.5 32.2598 29.4473 32.3536 29.3536C32.4473 29.2598 32.5 29.1326 32.5 29C32.5 28.8674 32.4473 28.7402 32.3536 28.6464C32.2598 28.5527 32.1326 28.5 32 28.5Z" fill="#FFF8F5"/>
<path d="M33.158 43.525C33.0828 43.5002 33.0028 43.4936 32.9246 43.5058C32.8463 43.518 32.7721 43.5486 32.708 43.595C32.6437 43.6413 32.5914 43.7021 32.5552 43.7725C32.5191 43.8429 32.5001 43.9209 32.5 44V45C32.5 45.1326 32.5527 45.2598 32.6464 45.3536C32.7402 45.4474 32.8674 45.5 33 45.5C33.1326 45.5 33.2598 45.4474 33.3536 45.3536C33.4473 45.2598 33.5 45.1326 33.5 45V44.758C34.3243 45.0927 35.0022 45.7104 35.412 46.5H28.59C29 45.7097 29.6767 45.09 30.5 44.751V45C30.5 45.1326 30.5527 45.2598 30.6464 45.3536C30.7402 45.4474 30.8674 45.5 31 45.5C31.1326 45.5 31.2598 45.4474 31.3536 45.3536C31.4473 45.2598 31.5 45.1326 31.5 45V44C31.4999 43.9209 31.4809 43.8429 31.4448 43.7725C31.4086 43.7021 31.3563 43.6413 31.292 43.595C31.2279 43.5486 31.1537 43.518 31.0754 43.5058C30.9972 43.4936 30.9172 43.5002 30.842 43.525C30.705 43.571 27.5 44.666 27.5 47C27.5 47.1326 27.5527 47.2598 27.6464 47.3536C27.7402 47.4474 27.8674 47.5 28 47.5H36C36.1326 47.5 36.2598 47.4474 36.3536 47.3536C36.4473 47.2598 36.5 47.1326 36.5 47C36.5 44.666 33.3 43.571 33.158 43.525Z" fill="#B52424"/>
<path d="M36 48.5H28C27.8674 48.5 27.7402 48.5527 27.6464 48.6464C27.5527 48.7402 27.5 48.8674 27.5 49C27.5 51.334 30.7 52.429 30.842 52.475C30.9173 52.4989 30.9971 52.505 31.0752 52.4929C31.1533 52.4808 31.2275 52.4507 31.292 52.405C31.3563 52.3588 31.4086 52.298 31.4448 52.2275C31.4809 52.1571 31.4999 52.0792 31.5 52V51C31.5 50.8674 31.4473 50.7402 31.3536 50.6464C31.2598 50.5527 31.1326 50.5 31 50.5C30.8674 50.5 30.7402 50.5527 30.6464 50.6464C30.5527 50.7402 30.5 50.8674 30.5 51V51.242C29.6757 50.9073 28.9978 50.2896 28.588 49.5H35.41C35 50.2904 34.3233 50.91 33.5 51.249V51C33.5 50.8674 33.4473 50.7402 33.3536 50.6464C33.2598 50.5527 33.1326 50.5 33 50.5C32.8674 50.5 32.7402 50.5527 32.6464 50.6464C32.5527 50.7402 32.5 50.8674 32.5 51V52C32.5 52.1326 32.5527 52.2598 32.6464 52.3536C32.7402 52.4473 32.8674 52.5 33 52.5C33.0536 52.4996 33.1069 52.4912 33.158 52.475C33.3 52.429 36.5 51.334 36.5 49C36.5 48.8674 36.4473 48.7402 36.3536 48.6464C36.2598 48.5527 36.1326 48.5 36 48.5Z" fill="#B52424"/>
<path d="M41.8451 25.476L44.8451 26.454C44.8951 26.4706 44.9474 26.4791 45.0001 26.479C45.1195 26.4795 45.235 26.4372 45.326 26.3599C45.4169 26.2826 45.4772 26.1753 45.4959 26.0574C45.5146 25.9395 45.4905 25.8189 45.428 25.7172C45.3655 25.6155 45.2687 25.5395 45.1551 25.503L42.1551 24.524C42.0926 24.5036 42.0267 24.4958 41.9612 24.5009C41.8956 24.506 41.8317 24.524 41.7731 24.5538C41.7145 24.5836 41.6624 24.6247 41.6197 24.6746C41.5769 24.7246 41.5445 24.7825 41.5241 24.845C41.5038 24.9075 41.4959 24.9734 41.501 25.0389C41.5061 25.1045 41.5241 25.1684 41.5539 25.227C41.5837 25.2856 41.6248 25.3377 41.6748 25.3804C41.7247 25.4232 41.7826 25.4556 41.8451 25.476V25.476Z" fill="#F5AC4E"/>
<path d="M42 23.8731C42.1082 23.8731 42.2135 23.838 42.3 23.7731L44.8 21.8871C44.8525 21.8477 44.8968 21.7983 44.9302 21.7418C44.9637 21.6853 44.9857 21.6228 44.995 21.5578C45.0043 21.4928 45.0007 21.4266 44.9844 21.363C44.9681 21.2994 44.9394 21.2396 44.9 21.1871C44.8606 21.1345 44.8112 21.0903 44.7547 21.0568C44.6982 21.0234 44.6357 21.0014 44.5707 20.9921C44.5057 20.9828 44.4395 20.9864 44.3759 21.0027C44.3123 21.019 44.2525 21.0477 44.2 21.0871L41.7 22.9741C41.616 23.037 41.554 23.1248 41.5227 23.225C41.4915 23.3251 41.4925 23.4326 41.5257 23.5322C41.5588 23.6317 41.6225 23.7183 41.7076 23.7797C41.7928 23.841 41.8951 23.8741 42 23.8741V23.8731Z" fill="#F5AC4E"/>
<path d="M24.543 4.94997L21.706 3.56697C21.5867 3.50902 21.4492 3.50085 21.3239 3.54427C21.1985 3.58768 21.0955 3.67912 21.0375 3.79847C20.9796 3.91781 20.9714 4.05529 21.0148 4.18066C21.0583 4.30603 21.1497 4.40902 21.269 4.46697L24.105 5.84997C24.1733 5.88303 24.2482 5.90013 24.324 5.89997C24.4369 5.89974 24.5464 5.86132 24.6347 5.79095C24.723 5.72058 24.7849 5.6224 24.8102 5.5124C24.8356 5.40239 24.823 5.28704 24.7745 5.1851C24.726 5.08316 24.6444 5.00064 24.543 4.95097V4.94997Z" fill="#F5AC4E"/>
<path d="M23.856 6.57399L21.12 8.09999C21.0099 8.16733 20.9301 8.27464 20.8973 8.39947C20.8645 8.5243 20.8812 8.65697 20.944 8.76974C21.0068 8.88251 21.1107 8.96663 21.2341 9.00452C21.3575 9.0424 21.4907 9.0311 21.606 8.97299L24.343 7.44799C24.4551 7.38151 24.5368 7.2739 24.5707 7.14808C24.6046 7.02226 24.5881 6.88816 24.5246 6.77436C24.4611 6.66056 24.3557 6.57603 24.2308 6.53879C24.1059 6.50156 23.9714 6.51454 23.856 6.57499V6.57399Z" fill="#F5AC4E"/>
</svg>
