<?xml version="1.0" encoding="UTF-8" standalone="no"?> <svg xmlns="http://www.w3.org/2000/svg" viewBox="0 0 64 64"><g id="solid"><path d="M26,4a1,1,0,0,0-2,0,2.585,2.585,0,0,1-.781,1.875,4.615,4.615,0,0,0,0,6.25A2.585,2.585,0,0,1,24,14a1,1,0,0,0,2,0,4.529,4.529,0,0,0-1.219-3.125,2.641,2.641,0,0,1,0-3.75A4.529,4.529,0,0,0,26,4Z"/><path d="M33,3a1,1,0,0,0-2,0,2.585,2.585,0,0,1-.781,1.875,4.615,4.615,0,0,0,0,6.25A2.585,2.585,0,0,1,31,13a1,1,0,0,0,2,0,4.529,4.529,0,0,0-1.219-3.125,2.641,2.641,0,0,1,0-3.75A4.529,4.529,0,0,0,33,3Z"/><path d="M40,4a1,1,0,0,0-2,0,2.585,2.585,0,0,1-.781,1.875,4.615,4.615,0,0,0,0,6.25A2.585,2.585,0,0,1,38,14a1,1,0,0,0,2,0,4.529,4.529,0,0,0-1.219-3.125,2.641,2.641,0,0,1,0-3.75A4.529,4.529,0,0,0,40,4Z"/><path d="M8,19a3,3,0,1,0,3-3A3,3,0,0,0,8,19Z"/><path d="M17,5a3,3,0,1,0-3,3A3,3,0,0,0,17,5Z"/><path d="M53,5a3,3,0,1,0-3,3A3,3,0,0,0,53,5Z"/><path d="M5,31a3,3,0,1,0-3-3A3,3,0,0,0,5,31Z"/><path d="M5,14a3,3,0,1,0-3-3A3,3,0,0,0,5,14Z"/><path d="M16.45,38.09a1,1,0,0,1-.1.841l-2.867,4.585,3.44,1.376a1,1,0,0,1,.628.884l.1,2.224h5.02a4.5,4.5,0,0,1,3.738,7H37.6a4.5,4.5,0,0,1,3.738-7h5.076l.1-2.05a1,1,0,0,1,.592-.863l3.382-1.507-2.8-4.007A1,1,0,0,1,48,38.132l2.57-1.469-3.405-5.106a1.008,1.008,0,0,1-.162-.442l-.194-1.663a15.207,15.207,0,0,0-29.881,1.382,1.01,1.01,0,0,1-.143.395l-1.021,1.633-.008.013-2.278,3.642,2.389.955A1,1,0,0,1,16.45,38.09ZM27,28H37a4.985,4.985,0,0,1,4.839,3.753A4.6,4.6,0,0,1,42,33c0,2.169-2.021,3.852-3,4.539V42a7,7,0,0,1-14,0V37.539c-.979-.687-3-2.37-3-4.539A5.006,5.006,0,0,1,27,28Z"/><path d="M38.833,52.5a2.5,2.5,0,0,0,2.5,2.5H51.5a2.5,2.5,0,0,0,0-5H41.333A2.5,2.5,0,0,0,38.833,52.5Z"/><path d="M26.513,36.142A1,1,0,0,1,27,37v5a5,5,0,0,0,10,0V37a1,1,0,0,1,.486-.857C38.139,35.75,40,34.33,40,33a2.634,2.634,0,0,0-.093-.729A3,3,0,0,0,37,30H27a3,3,0,0,0-3,3C24,34.341,25.86,35.752,26.513,36.142ZM35,32a1,1,0,0,1,2,0v1a1,1,0,0,1-2,0Zm-5.8,7.4a1,1,0,0,1,1.4-.2L32,40.25l1.4-1.05a1,1,0,1,1,1.2,1.6L33,42v2a1,1,0,0,1-2,0V42l-1.6-1.2A1,1,0,0,1,29.2,39.4ZM27,32a1,1,0,0,1,2,0v1a1,1,0,0,1-2,0Z"/><path d="M56,57H8a4.005,4.005,0,0,0-3.873,3H59.873A4.005,4.005,0,0,0,56,57Z"/><path d="M8.762,55a4.482,4.482,0,0,1,0-5H7a1,1,0,0,1,0-2h5a.933.933,0,0,1,.167.034c.112-.009.219-.034.333-.034h3.145l-.066-1.491L11.807,45H10a1,1,0,0,1,0-2h1.446l2.573-4.115-2.39-.956a1,1,0,0,1-.477-1.459l1.509-2.413-.048.017A13.988,13.988,0,0,0,7.277,38H8a1,1,0,0,1,0,2H6a1.133,1.133,0,0,1-.116-.023A13.914,13.914,0,0,0,4.326,44H6a1,1,0,0,1,0,2H4.037c-.023.331-.037.664-.037,1v5H5a1,1,0,0,1,0,2H4v2.54A5.969,5.969,0,0,1,8,55Z"/><path d="M12.5,50a2.5,2.5,0,0,0,0,5H22.667a2.5,2.5,0,0,0,0-5Z"/><path d="M59,52h1V47c0-.335-.013-.668-.037-1H58a1,1,0,0,1,0-2h1.674a13.881,13.881,0,0,0-1.568-4.021A.9.9,0,0,1,58,40H56a1,1,0,0,1,0-2h.712a14.023,14.023,0,0,0-5.329-3.928c-.057-.024-.117-.039-.174-.062l1.623,2.435a1,1,0,0,1-.336,1.423l-2.548,1.456L52.521,43H54a1,1,0,0,1,0,2H52.212l-3.734,1.663L48.411,48H51.5c.114,0,.221.025.333.034A.933.933,0,0,1,52,48h5a1,1,0,0,1,0,2H55.238a4.482,4.482,0,0,1,0,5H56a5.969,5.969,0,0,1,4,1.54V54H59a1,1,0,0,1,0-2Z"/><path d="M53,22a3,3,0,1,0-3-3A3,3,0,0,0,53,22Z"/><path d="M59,25a3,3,0,1,0,3,3A3,3,0,0,0,59,25Z"/><path d="M59,8a3,3,0,1,0,3,3A3,3,0,0,0,59,8Z"/></g></svg>