<?xml version="1.0" encoding="UTF-8" standalone="no"?> <svg xmlns="http://www.w3.org/2000/svg" viewBox="0 0 64 64"><g id="filled_outline" data-name="filled outline"><rect x="17" y="27" width="30" height="12" style="fill:#a83b32"/><path d="M43,23H39l1,2-8,2-8-2,1-2H21V22A11,11,0,0,1,32,11h0A11,11,0,0,1,43,22Z" style="fill:#a83b32"/><polygon points="45 59 19 59 19 40 21 40 23 39 41 39 43 40 45 40 45 59" style="fill:#812d26"/><path d="M27,52a1,1,0,0,1-1-1V46a1,1,0,0,1,2,0v5A1,1,0,0,1,27,52Z" style="fill:#722822"/><rect x="25" y="50" width="4" height="2" style="fill:#722822"/><path d="M38,52a1,1,0,0,1-1-1V46a1,1,0,0,1,2,0v5A1,1,0,0,1,38,52Z" style="fill:#722822"/><rect x="36" y="50" width="4" height="2" style="fill:#722822"/><path d="M20,45l12,4,12-4V41a2,2,0,0,0-2-2H22a2,2,0,0,0-2,2Z" style="fill:#b43f35"/><path d="M20,41l12,4,12-4h0a2,2,0,0,0-2-2H22a2,2,0,0,0-2,2Z" style="fill:#c7463b"/><rect x="20" y="30" width="2" height="2" style="fill:#812d26"/><rect x="20" y="34" width="2" height="2" style="fill:#812d26"/><path d="M25,23l-.7-.526A20.411,20.411,0,0,0,17,19h0v5h0a20.411,20.411,0,0,1,7.3,3.474L25,28Z" style="fill:#812d26"/><rect x="42" y="30" width="2" height="2" style="fill:#812d26"/><rect x="42" y="34" width="2" height="2" style="fill:#812d26"/><path d="M39,23l.7-.526A20.411,20.411,0,0,1,47,19h0v5h0a20.411,20.411,0,0,0-7.3,3.474L39,28Z" style="fill:#812d26"/><path d="M44,40h2a6,6,0,0,1,6,6V59a0,0,0,0,1,0,0H44a0,0,0,0,1,0,0V40A0,0,0,0,1,44,40Z" style="fill:#a83b32"/><rect x="44" y="48" width="8" height="4" style="fill:#812d26"/><path d="M12,40h8a0,0,0,0,1,0,0V53a6,6,0,0,1-6,6H12a0,0,0,0,1,0,0V40A0,0,0,0,1,12,40Z" transform="translate(32 99) rotate(-180)" style="fill:#a83b32"/><rect x="12" y="48" width="8" height="4" transform="translate(32 100) rotate(-180)" style="fill:#812d26"/><polygon points="44 40 51 52 61 52 54 40 44 40" style="fill:#dc4d41"/><polygon points="20 40 13 52 3 52 10 40 20 40" style="fill:#dc4d41"/><polygon points="38 8 38.75 10 32 19 25.25 10 26 8 16 6 29 22 35 22 47 6 38 8" style="fill:#fbb540"/><circle cx="32" cy="20" r="2" style="fill:#ea9d2d"/><rect x="20" y="54" width="24" height="2" style="fill:#722822"/><rect x="26" y="36" width="12" height="3" style="fill:#812d26"/><path d="M32,40h0a7,7,0,0,1-7-7V25l7,2,7-2v8A7,7,0,0,1,32,40Z" style="fill:#f9d7c0"/><path d="M29,31a1.052,1.052,0,0,1-.71-.29l-.12-.15a.757.757,0,0,1-.09-.18.636.636,0,0,1-.06-.18A1.355,1.355,0,0,1,28,30a1,1,0,0,1,.08-.38,1.155,1.155,0,0,1,.21-.33,1,1,0,0,1,1.09-.21.9.9,0,0,1,.54.54A1,1,0,0,1,30,30a1.355,1.355,0,0,1-.02.2.636.636,0,0,1-.06.18.757.757,0,0,1-.09.18l-.12.15a1.155,1.155,0,0,1-.33.21A1,1,0,0,1,29,31Z" style="fill:#a45e14"/><path d="M35,31a.99.99,0,1,1,.71-.29l-.15.12a.757.757,0,0,1-.18.09.636.636,0,0,1-.18.06A1.5,1.5,0,0,1,35,31Z" style="fill:#a45e14"/><path d="M25,33a7,7,0,0,0,6.075,6.932,6.325,6.325,0,0,0,1.85,0A7,7,0,0,0,39,33l-7-1Z" style="fill:#787d82"/><path d="M32,37a6.4,6.4,0,0,1-3.555-1.079,1,1,0,0,1,1.11-1.664,4.4,4.4,0,0,0,4.89,0,1,1,0,1,1,1.11,1.664A6.4,6.4,0,0,1,32,37Z" style="fill:#62666a"/><polygon points="24 25 32 27 40 25 39 23 38 22 26 22 25 23 24 25" style="fill:#812d26"/><path d="M32,28a.993.993,0,0,1-.275-.039l-7-2a1,1,0,0,1,.55-1.922L32,25.96l6.725-1.921a1,1,0,0,1,.55,1.922l-7,2A.993.993,0,0,1,32,28Z" style="fill:#f3af3e"/><path d="M29.555,34.26a1,1,0,0,0-1.11,1.664,6.4,6.4,0,0,0,7.11,0,1,1,0,1,0-1.11-1.664A4.4,4.4,0,0,1,29.555,34.26Z"/><path d="M29.71,29.29a1.155,1.155,0,0,0-.33-.21,1,1,0,0,0-1.09.21,1.155,1.155,0,0,0-.21.33A1,1,0,0,0,28,30a1.355,1.355,0,0,0,.02.2.636.636,0,0,0,.06.18.757.757,0,0,0,.09.18l.12.15A1.052,1.052,0,0,0,29,31a1,1,0,0,0,.38-.08,1.155,1.155,0,0,0,.33-.21l.12-.15a.757.757,0,0,0,.09-.18.636.636,0,0,0,.06-.18A1.355,1.355,0,0,0,30,30a1,1,0,0,0-.08-.38A1.155,1.155,0,0,0,29.71,29.29Z"/><path d="M34.29,29.29A1,1,0,0,0,35,31a1.5,1.5,0,0,0,.2-.02.636.636,0,0,0,.18-.06.757.757,0,0,0,.18-.09l.15-.12a1,1,0,0,0-1.42-1.42Z"/><rect x="20" y="30" width="2" height="2"/><rect x="20" y="34" width="2" height="2"/><rect x="42" y="30" width="2" height="2"/><rect x="42" y="34" width="2" height="2"/><path d="M54.864,39.5A1,1,0,0,0,54,39H48V27a1,1,0,0,0-1-1H44.218a19.422,19.422,0,0,1,3.025-1.03A1,1,0,0,0,48,24V19a1,1,0,0,0-1.243-.97A21.494,21.494,0,0,0,43.636,19.1a11.927,11.927,0,0,0-2.013-4.262L47.8,6.6a1,1,0,0,0-1.017-1.576l-9,2a1,1,0,0,0-.72,1.327l.558,1.487-.864,1.153a11.913,11.913,0,0,0-9.514,0l-.864-1.153.558-1.487A1,1,0,0,0,26.2,7.02l-10-2a1,1,0,0,0-.972,1.61l6.923,8.521A11.914,11.914,0,0,0,20.364,19.1a21.494,21.494,0,0,0-3.121-1.067A1,1,0,0,0,16,19v5a1,1,0,0,0,.757.97A19.445,19.445,0,0,1,19.763,26H17a1,1,0,0,0-1,1V39H10a1,1,0,0,0-.864.5l-7,12A1,1,0,0,0,3,53h8v6a1,1,0,0,0,1,1H52a1,1,0,0,0,1-1V53h8a1,1,0,0,0,.864-1.5Zm.9,5.5,1.167,2H49.241l-1.167-2Zm-7.667,4,1.167,2H45V49ZM45,47V43.7L46.926,47Zm8.426-6,1.166,2H47a.745.745,0,0,0-.082.017L45.741,41ZM46,20.325v2.909a21.309,21.309,0,0,0-5.166,2.281.772.772,0,0,0,.061-.962L40.268,23.3l.034-.026A19.287,19.287,0,0,1,46,20.325Zm-4.21-.342A21.361,21.361,0,0,0,39.1,21.674l-.008.006-.387-.387A1,1,0,0,0,38,21H37l3.36-4.48A9.917,9.917,0,0,1,41.79,19.983Zm-1.584,6c-.005.008-.016.013-.021.021h-.061ZM35,23h2.586l.592.592.264.528L32,25.96l-6.442-1.84.264-.528L26.414,23H35Zm-4-3a1,1,0,1,1,1,1A1,1,0,0,1,31,20Zm1.142,11.01a1.039,1.039,0,0,0-.284,0L26,31.847V26.531l5.757,1.439a1,1,0,0,0,.23.028h.026a1,1,0,0,0,.23-.028L38,26.531v5.316Zm5.744,2.841-.079.632,0,.006a6.015,6.015,0,0,1-.328.95l-.007.014a5.928,5.928,0,0,1-.449.822c-.011.017-.02.035-.031.052a5.973,5.973,0,0,1-.515.656c-.051.057-.1.115-.154.169a6.03,6.03,0,0,1-.571.525c-.064.051-.131.1-.2.146a6.034,6.034,0,0,1-.6.4c-.051.028-.1.057-.151.084a6.014,6.014,0,0,1-.715.316c-.063.024-.125.048-.189.07a6.006,6.006,0,0,1-.815.208c-.057.011-.115.018-.173.027a5.45,5.45,0,0,1-1.814,0c-.058-.009-.116-.016-.173-.027a6.006,6.006,0,0,1-.815-.208c-.064-.022-.126-.046-.189-.07A6.014,6.014,0,0,1,29.2,38.3c-.051-.027-.1-.056-.151-.084a6.034,6.034,0,0,1-.6-.4c-.065-.048-.132-.095-.2-.146a6.03,6.03,0,0,1-.571-.525c-.053-.054-.1-.112-.154-.169a5.973,5.973,0,0,1-.515-.656c-.011-.017-.02-.035-.031-.052a5.928,5.928,0,0,1-.449-.822l-.007-.014a6.015,6.015,0,0,1-.328-.95l0-.006-.079-.632L32,33.01ZM26,21a1,1,0,0,0-.707.293l-.387.387-.008-.006a21.361,21.361,0,0,0-2.688-1.691,9.941,9.941,0,0,1,1.26-3.2L26.9,21ZM25,40h3a.937.937,0,0,0,.092-.019,8.007,8.007,0,0,0,.773.378l.093.037c.191.078.386.15.584.214.064.021.13.04.195.059.17.05.341.094.515.133.078.017.157.035.236.05.173.033.349.059.526.081.075.009.149.021.225.028.251.024.5.039.761.039s.51-.015.761-.039c.076-.007.15-.019.225-.028.177-.022.353-.048.526-.081.079-.015.158-.033.236-.05.174-.039.345-.083.515-.133.065-.019.13-.038.2-.059q.3-.1.584-.215c.031-.012.063-.023.093-.036a8.007,8.007,0,0,0,.773-.378A.937.937,0,0,0,36,40h6a1,1,0,0,1,.409.092,1.162,1.162,0,0,1,.112.076,1.027,1.027,0,0,1,.212.164c.008.009.012.021.02.03L32,43.946,21.247,40.362c.008-.009.012-.021.02-.03a1.027,1.027,0,0,1,.212-.164,1.162,1.162,0,0,1,.112-.076A1,1,0,0,1,22,40ZM39.687,9.649l-.347-.922,5.238-1.165-4.309,5.746a12.028,12.028,0,0,0-1.729-1.361L39.55,10.6A1,1,0,0,0,39.687,9.649Zm-2.35,3.9a10.04,10.04,0,0,1,1.725,1.367l-4.1,5.468A2.869,2.869,0,0,0,35,20a2.991,2.991,0,0,0-.9-2.136ZM32,12a10,10,0,0,1,3.52.64l-3.288,4.383C32.154,17.017,32.08,17,32,17s-.154.017-.232.023L28.48,12.64A10,10,0,0,1,32,12Zm-5.337,1.55L29.9,17.864A2.991,2.991,0,0,0,29,20a2.95,2.95,0,0,0,.048.473l-4.326-5.324A10,10,0,0,1,26.663,13.55ZM18.528,7.525,24.651,8.75l-.338.9a1,1,0,0,0,.137.951l1.01,1.347a12.068,12.068,0,0,0-2.011,1.636ZM18,23.234V20.325a19.287,19.287,0,0,1,5.7,2.948l.034.026-.627,1.254a1,1,0,0,0-.014.865.992.992,0,0,0,.08.1A21.3,21.3,0,0,0,18,23.234ZM10.574,41h7.685l-1.177,2.017A.745.745,0,0,0,17,43H9.408ZM8.241,45h7.685l-1.167,2H7.074ZM12,51H4.741l1.177-2.017A.745.745,0,0,0,6,49h7.592l-1.166,2Zm7,7H13V53h6Zm0-7H14.741l1.167-2H19Zm0-6v2H17.074L19,43.7Zm-1-7V28h6V38H18ZM43,58H21V56H43Zm0-10v6H21V46.388l5,1.666V50H25v2h4V50H28V48.721l3.684,1.228a1,1,0,0,0,.632,0L37,48.388V50H36v2h4V50H39V47.721l4-1.333Zm0-3.721L32,47.946,21,44.279V42.388l10.684,3.561a1,1,0,0,0,.632,0L43,42.388ZM42,38H40V28h6V38H42Zm9,20H45V53h6Zm1-7h-.426l-1.166-2H58a.745.745,0,0,0,.082-.017L59.259,51Z"/></g></svg>