<?xml version="1.0" encoding="UTF-8" standalone="no"?> <svg id="icons" xmlns="http://www.w3.org/2000/svg" viewBox="0 0 340 340"><title>27_shrine</title><path d="M170,109.045H33.344l5.425,18.082A12.175,12.175,0,0,0,50.431,135.8H289.569a12.175,12.175,0,0,0,11.662-8.677l5.425-18.082Z" style="fill:#dd476b"/><rect x="64.786" y="65.348" width="32.578" height="247.443" style="fill:#ff7398"/><path d="M99.926,312.791h-37.7a9.151,9.151,0,0,0-9.151,9.151V330h56v-8.058A9.151,9.151,0,0,0,99.926,312.791Z" style="fill:#404a66"/><rect x="242.637" y="65.348" width="32.578" height="247.443" transform="translate(517.851 378.139) rotate(180)" style="fill:#ff7398"/><path d="M240.074,312.791h37.7a9.151,9.151,0,0,1,9.151,9.151V330h-56v-8.058A9.151,9.151,0,0,1,240.074,312.791Z" style="fill:#404a66"/><polygon points="168.95 189.692 178.216 198.188 172.26 203.858 180.919 212.131 173.947 220.59 182.163 227.723 167.532 243.45 159.726 235.77 166.575 227.917 158.967 219.857 165.693 212.609 155.739 203.092 168.95 189.692" style="fill:#e4e6f4"/><polygon points="214.769 189.692 224.035 198.188 218.079 203.858 226.738 212.131 219.766 220.59 227.982 227.723 213.351 243.45 205.545 235.77 212.394 227.917 204.786 219.857 211.512 212.609 201.558 203.092 214.769 189.692" style="fill:#e4e6f4"/><polygon points="128.92 189.986 138.186 198.482 132.23 204.152 140.889 212.426 133.917 220.884 142.133 228.017 127.503 243.744 119.696 236.065 126.545 228.211 118.938 220.152 125.664 212.904 115.71 203.386 128.92 189.986" style="fill:#e4e6f4"/><path d="M10,10s5,8.861,6.1,16.182c.011.073.023.146.034.218A16.824,16.824,0,0,0,32.815,40.457h274.37A16.824,16.824,0,0,0,323.864,26.4c.011-.072.023-.145.034-.218C325,18.861,330,10,330,10Z" style="fill:#404a66"/><path d="M39.242,40.457s4.09,7.242,4.987,13.224c.009.06.019.12.028.179A13.749,13.749,0,0,0,57.888,65.348H282.112A13.749,13.749,0,0,0,295.743,53.86c.009-.059.019-.119.028-.179.9-5.982,4.987-13.224,4.987-13.224Z" style="fill:#ff7398"/><rect x="151.718" y="65.348" width="36.565" height="43.697" style="fill:#404a66"/><path d="M277.742,153.6H62.258a9.408,9.408,0,0,0,0,18.816H277.742a9.408,9.408,0,0,0,0-18.816Z" style="fill:#f4dcc6"/><path d="M73.677,172.415h9.477c-4.411-5.278-5.927-13.9-6.442-18.816H68.668C69.08,158.041,70.269,165.776,73.677,172.415Z" style="fill:#e2b088"/><path d="M101.679,172.415h9.477c-4.411-5.278-5.926-13.906-6.442-18.816H96.67C97.083,158.041,98.272,165.776,101.679,172.415Z" style="fill:#e2b088"/><path d="M130.141,172.415h9.477c-4.411-5.278-5.927-13.906-6.442-18.816h-8.044C125.544,158.041,126.733,165.776,130.141,172.415Z" style="fill:#e2b088"/><path d="M158.143,172.415h9.477c-4.412-5.278-5.927-13.906-6.443-18.816h-8.043C153.546,158.041,154.735,165.776,158.143,172.415Z" style="fill:#e2b088"/><path d="M188.164,172.415h9.478c-4.412-5.278-5.927-13.906-6.443-18.816h-8.044C183.568,158.041,184.757,165.776,188.164,172.415Z" style="fill:#e2b088"/><path d="M216.167,172.415h9.477c-4.412-5.278-5.927-13.9-6.443-18.816h-8.044C211.569,158.041,212.759,165.776,216.167,172.415Z" style="fill:#e2b088"/><path d="M241.84,172.415h9.477c-4.411-5.278-5.927-13.906-6.442-18.816h-8.044C237.243,158.041,238.432,165.776,241.84,172.415Z" style="fill:#e2b088"/><path d="M269.842,172.415h7.9a9.438,9.438,0,0,0,1.475-.127c-4.332-5.288-5.829-13.817-6.34-18.689h-8.044C265.245,158.041,266.435,165.776,269.842,172.415Z" style="fill:#e2b088"/><rect x="242.637" y="65.348" width="32.578" height="14.721" style="fill:#dd476b"/><rect x="64.786" y="65.348" width="32.578" height="14.721" style="fill:#dd476b"/><path d="M6.545,7.983a4,4,0,0,0-.028,3.984c1.291,2.286,4.819,9.4,5.628,14.8l.041.264A20.7,20.7,0,0,0,32.815,44.457h4a37.563,37.563,0,0,1,3.461,9.809l.034.22A17.644,17.644,0,0,0,57.888,69.348h2.9v35.7H33.344a4,4,0,0,0-3.831,5.149l5.425,18.082a16.076,16.076,0,0,0,15.494,11.529H60.786v9.879a13.4,13.4,0,0,0,0,26.646V308.874a13.166,13.166,0,0,0-11.713,13.068V330a4,4,0,0,0,4,4h56a4,4,0,0,0,4-4v-8.058a13.167,13.167,0,0,0-11.714-13.068V186.415a4,4,0,0,0-8,0V308.791H68.786V176.415h46.063a4,4,0,1,0,0-8H110.5c-3.35-3.019-4.852-7.543-5.52-10.816h20.329a33.54,33.54,0,0,0,3.624,10.816h-.025a4,4,0,0,0-4,4v15.931l-12.06,12.232a4,4,0,0,0,.085,5.7l7.1,6.793L116,217.431a4,4,0,0,0,.023,5.466l5.116,5.42-4.463,5.119a4,4,0,0,0,.209,5.48l7.807,7.68a4,4,0,0,0,2.8,1.148h.088a3.994,3.994,0,0,0,2.84-1.274l14.631-15.728a4,4,0,0,0-.306-5.745l-5.272-4.576,4.492-5.45a4,4,0,0,0-.323-5.437l-5.627-5.376,2.918-2.777a4,4,0,0,0-.055-5.846l-7.968-7.307V176.415h32.954v11.931l-12.059,12.232a4,4,0,0,0,.084,5.7L161,213.071l-4.045,4.36a4,4,0,0,0,.023,5.465l5.116,5.421-4.464,5.119a4,4,0,0,0,.21,5.48l7.807,7.68a4,4,0,0,0,2.805,1.148h.089a4,4,0,0,0,2.839-1.274l14.631-15.728A4,4,0,0,0,185.7,225l-5.271-4.576,4.492-5.45a4,4,0,0,0-.324-5.436l-5.626-5.377,2.918-2.777a4,4,0,0,0-.055-5.846l-7.969-7.307V176.415h36.894v11.931L198.7,200.578a4,4,0,0,0,.085,5.7l7.105,6.793-4.045,4.36a4,4,0,0,0,.024,5.466l5.115,5.42-4.463,5.119a4,4,0,0,0,.209,5.48l7.807,7.68a4,4,0,0,0,2.805,1.148h.089a4,4,0,0,0,2.84-1.274l14.63-15.728a4,4,0,0,0-.306-5.745l-5.272-4.576,4.492-5.45a4,4,0,0,0-.323-5.436l-5.626-5.376,2.918-2.778a4,4,0,0,0-.055-5.846l-7.969-7.307V176.415h52.455V308.791H246.637V186.415a4,4,0,0,0-8,0V308.874a13.167,13.167,0,0,0-11.714,13.068V330a4,4,0,0,0,4,4h56a4,4,0,0,0,4-4v-8.058a13.166,13.166,0,0,0-11.713-13.068V176.33a13.4,13.4,0,0,0,0-26.646v-9.879h10.354a16.078,16.078,0,0,0,15.5-11.529l5.424-18.082a4,4,0,0,0-3.831-5.149H279.214v-35.7h2.9A17.646,17.646,0,0,0,299.7,54.476l.031-.2a37.626,37.626,0,0,1,3.463-9.818h4a20.694,20.694,0,0,0,20.627-17.416l.041-.266c.973-6.485,5.585-14.727,5.63-14.808A4,4,0,0,0,330,6H10A4,4,0,0,0,6.545,7.983Zm165.7,215.922,5.09,4.418-9.009,9.685-2.19-2.154,4.373-5.014a4,4,0,0,0-.106-5.374l-5.037-5.338,4.18-4.5a4,4,0,0,0-.168-5.612l-7.019-6.709,7.651-7.761,3.267,3-2.855,2.718a4,4,0,0,0,0,5.789l5.971,5.706-4.608,5.591A4,4,0,0,0,172.24,223.905Zm44.894,0,5.089,4.418-9.009,9.685-2.189-2.154,4.373-5.014a4,4,0,0,0-.106-5.375l-5.037-5.337,4.179-4.5a4,4,0,0,0-.168-5.612l-7.018-6.709,7.651-7.761,3.267,3-2.855,2.718a4,4,0,0,0,0,5.789l5.971,5.706-4.608,5.591A4,4,0,0,0,217.134,223.905ZM147.717,69.348v35.7H101.363v-35.7Zm90.92,0v35.7H192.283v-35.7ZM265.014,157.6a33.516,33.516,0,0,0,3.624,10.816H250.664c-3.35-3.019-4.852-7.543-5.52-10.816ZM224.99,168.415c-3.35-3.019-4.852-7.543-5.52-10.816h17.541a33.521,33.521,0,0,0,3.625,10.816Zm-28,0c-3.35-3.019-4.852-7.543-5.52-10.816h8.124a4,4,0,1,0,0-8H101.363v-9.794H238.637V149.6h-22.7a3.858,3.858,0,0,0-.5.05,3.792,3.792,0,0,0-.5-.05h-.074a4,4,0,0,0-3.926,4.071,34.767,34.767,0,0,0,4.024,14.744Zm-30.021,0c-3.351-3.019-4.852-7.543-5.521-10.816h21.89a33.516,33.516,0,0,0,3.624,10.816Zm-15.25-55.37h86.92v18.76H101.363v-18.76Zm32.566-8H155.717v-35.7h28.566ZM93.363,149.6H68.786V69.348H93.363ZM50.432,131.805a8.127,8.127,0,0,1-7.832-5.827l-3.88-12.933H60.786v18.76Zm6.418,31.2a5.413,5.413,0,0,1,5.408-5.408h6.591a33.516,33.516,0,0,0,3.624,10.816H62.258A5.414,5.414,0,0,1,56.85,163.007ZM97.363,316.791h2.563a5.157,5.157,0,0,1,5.151,5.151V326h-48v-4.058a5.157,5.157,0,0,1,5.151-5.151H97.363ZM82.5,168.415c-3.35-3.019-4.852-7.543-5.52-10.816h19.87a33.516,33.516,0,0,0,3.624,10.816ZM133.444,157.6h19.87a33.521,33.521,0,0,0,3.625,10.816H138.965C135.614,165.4,134.113,160.872,133.444,157.6Zm-2.159,66.306,5.09,4.418-9.009,9.685-2.189-2.154,4.373-5.014a4,4,0,0,0-.106-5.375l-5.038-5.337,4.18-4.5a4,4,0,0,0-.168-5.612L121.4,203.3l7.651-7.761,3.266,3-2.855,2.718a4,4,0,0,0,0,5.79l5.972,5.705-4.608,5.591A4,4,0,0,0,131.285,223.905Zm151.642,98.037V326h-48v-4.058a5.157,5.157,0,0,1,5.151-5.151h37.7A5.157,5.157,0,0,1,282.927,321.942Zm.223-158.935a5.412,5.412,0,0,1-4.565,5.336c-3.294-3.019-4.776-7.5-5.439-10.744h4.6A5.413,5.413,0,0,1,283.15,163.007Zm18.13-49.962-3.88,12.933a8.127,8.127,0,0,1-7.832,5.827H279.214v-18.76ZM271.214,149.6H246.637V69.348h24.577Zm20.6-96.5-.021.136a9.8,9.8,0,0,1-9.68,8.114H57.888a9.8,9.8,0,0,1-9.679-8.1l-.024-.157a38.358,38.358,0,0,0-2.593-8.631H294.408A38.45,38.45,0,0,0,291.813,53.1ZM323.583,14a48.6,48.6,0,0,0-3.643,11.6l-.027.172a12.9,12.9,0,0,1-12.728,10.683H32.815a12.9,12.9,0,0,1-12.731-10.7l-.026-.172A48.528,48.528,0,0,0,16.417,14Z" style="fill:#404a66"/></svg>