<?xml version="1.0" encoding="UTF-8" standalone="no"?> <svg id="icons" xmlns="http://www.w3.org/2000/svg" viewBox="0 0 340 340"><title>4_sumo</title><path d="M41.475,307.3a26.85,26.85,0,0,0-15.014,22.143,4,4,0,0,0,3.986,4.347H71.065a16.433,16.433,0,0,0,8.341-2.189,11.763,11.763,0,0,0,6.252-10.293c.01-.5.121-11.174-7.285-16.059a26.815,26.815,0,0,1,1.953-6.409,23.027,23.027,0,0,0,2.445-10.3,30.25,30.25,0,0,0-3.408-13.069l3.621-.031a4,4,0,0,0-.033-8h-.034l-10.758.09H63.476a4,4,0,0,0,0,8H70.13c3.706,5.487,4.592,10.122,4.643,13.144a15.183,15.183,0,0,1-1.667,6.721,38.61,38.61,0,0,0-3.085,11.8,4,4,0,0,0,2.677,4.112c4.992,1.728,4.962,9.78,4.961,9.923,0,.985-.262,2.271-2.308,3.475a8.455,8.455,0,0,1-4.286,1.084H35.256c3.154-10.371,13.38-12.729,13.85-12.832a4,4,0,0,0,2.1-6.656c-14.069-14.972-20.6-35.14-23.607-49.423a21.325,21.325,0,0,1,5.47-19.191c.524-.546,1.065-1.075,1.6-1.609a11.49,11.49,0,0,0,1.406,1.161,11.31,11.31,0,0,0,14.172-1.009c4.092-3.864,10.824-8.736,19.662-10.007a13.462,13.462,0,0,0,11.511-14.475c1.761-.268,3.376-.45,4.806-.57a21.61,21.61,0,0,0,1,4.095,77.534,77.534,0,0,0,12.975,22.949l-12.02,22.837a4,4,0,0,0,1.3,5.181l9.832,6.624L92.1,283.972a4,4,0,0,0,.771,5.236l8.1,6.843L96.1,303.1a4,4,0,0,0,1.169,5.667l15.294,9.565a4,4,0,0,0,5.45-1.175l13.944-20.943a62.227,62.227,0,0,0,17.4,5.1l-.727,1.106a4,4,0,0,0,1.151,5.542l8.428,5.524-3.34,4.891a4,4,0,0,0,1.165,5.637l15.247,9.639a4,4,0,0,0,5.47-1.169l14.884-22.427a4,4,0,0,0-1.248-5.626l-4.1-2.5a93.417,93.417,0,0,0,22.729-5.815l1.925,1.721-4.033,4.339a4,4,0,0,0,.314,5.748l13.644,11.8a4,4,0,0,0,5.584-.343L244.5,299.42a4,4,0,0,0-.4-5.749l-8.994-7.538,9.076-9.659a4,4,0,0,0-.344-5.8l-9.443-7.923,8.312-10.5a4,4,0,0,0-.22-5.221l-5.376-5.727a77,77,0,0,0,7.805-10.142c.057-.086.115-.17.165-.26a76.842,76.842,0,0,0,7.681-15.626,21.654,21.654,0,0,0,1-4.094c1.431.12,3.046.3,4.806.571a13.418,13.418,0,0,0,.281,4.1,13.566,13.566,0,0,0,11.229,10.37c8.836,1.271,15.571,6.143,19.663,10.007a11.31,11.31,0,0,0,14.172,1.009,11.353,11.353,0,0,0,1.408-1.162c.536.534,1.075,1.063,1.6,1.61a21.328,21.328,0,0,1,5.47,19.191c-3,14.283-9.538,34.451-23.608,49.423a4.01,4.01,0,0,0,2.083,6.652c.489.106,10.716,2.465,13.87,12.836H268.936a8.447,8.447,0,0,1-4.287-1.085c-2.045-1.2-2.308-2.489-2.309-3.552,0-.081-.017-8.121,4.961-9.845a4,4,0,0,0,2.678-4.112,38.659,38.659,0,0,0-3.085-11.8,15.167,15.167,0,0,1-1.667-6.721c.051-3.02.936-7.655,4.643-13.143h6.655a4,4,0,0,0,0-8h-8.684l-12.526-.1a4,4,0,1,0-.067,8l5.39.045a30.217,30.217,0,0,0-3.409,13.07,23,23,0,0,0,2.445,10.3,26.738,26.738,0,0,1,1.952,6.408c-7.4,4.884-7.294,15.546-7.285,15.983a11.8,11.8,0,0,0,6.251,10.37,16.449,16.449,0,0,0,8.344,2.189h40.618a4,4,0,0,0,3.985-4.347A26.85,26.85,0,0,0,298.526,307.3c12.662-15.649,18.773-34.851,21.7-48.774a29.323,29.323,0,0,0-7.53-26.382c-1.286-1.337-2.611-2.625-3.947-3.877a11.482,11.482,0,0,0-.29-2.907c-2.017-8.688-7.822-15.512-10.913-18.651,7.607-24.85,7.39-48.7,6.549-60.93a29.1,29.1,0,0,0-8.457-18.588L293.1,124.65c-2.605-2.605-5.22-5.492-7.772-8.581-11.114-13.451-22.38-16.445-25.568-17.043-.762-.142-2.083-.43-2.835-.631-6.494-1.736-13.889-5.234-18.949-7.864a80.2,80.2,0,0,1-8.338-5.1,67.979,67.979,0,0,0-11.009-6.049,4,4,0,0,0-3.211,7.328,59.877,59.877,0,0,1,9.71,5.329,87.714,87.714,0,0,0,9.159,5.594c5.415,2.813,13.379,6.571,20.573,8.494,1.006.269,2.517.595,3.427.766,1.794.336,11.231,2.6,20.873,14.275,2.714,3.283,5.5,6.359,8.283,9.142l2.539,2.539a21.107,21.107,0,0,1,6.133,13.48c.828,12.044,1.027,35.9-6.938,60.319a4,4,0,0,0,1.216,4.291c.081.068,8.124,6.974,10.274,16.231a3.326,3.326,0,0,1-1.321,3.508,3.276,3.276,0,0,1-4.106-.264c-4.934-4.658-13.106-10.539-24.016-12.108a5.509,5.509,0,0,1-3.012-9.424c.4-.384.839-.782,1.314-1.187a20.541,20.541,0,0,0,7.159-17.288c-.623-7.368-2.856-18.753-9.664-32.637a19.873,19.873,0,0,0,7.34-4.906,4,4,0,0,0-5.836-5.472,12.6,12.6,0,0,1-7.547,3.729c-.125.006-.264.02-.387.037a35.146,35.146,0,0,1-12.3-1.029,42.429,42.429,0,0,0-10.673-1.344h-7.675a4,4,0,0,0,0,8h7.675a34.464,34.464,0,0,1,8.662,1.087c.687.179,1.357.33,2.019.469a25.471,25.471,0,0,0-4.79,7.433c-1.3,3.085-4.212,8.647-9.138,11.26a46.888,46.888,0,0,1-9.985,3.243,37.724,37.724,0,0,1-23.413-2.422,37.9,37.9,0,0,0-15.623-3.288,4,4,0,0,0,0,8A29.964,29.964,0,0,1,197.7,185.15a45.823,45.823,0,0,0,18.713,3.986,45.072,45.072,0,0,0,9.7-1.049,63.633,63.633,0,0,0,7.9-2.265c.114.36.228.737.339,1.143a15.163,15.163,0,0,1,.523,3.992,10.262,10.262,0,0,0-5.613,4.595c-10.916,19.075-33.673,30.874-59.481,30.874l-.514,0c-25.582-.155-47.992-11.968-58.485-30.83a10.15,10.15,0,0,0-5.637-4.659,15.171,15.171,0,0,1,.522-3.97c.112-.406.226-.783.34-1.143a63.779,63.779,0,0,0,7.9,2.265,45.046,45.046,0,0,0,9.7,1.049,45.839,45.839,0,0,0,18.715-3.986,29.946,29.946,0,0,1,12.347-2.586,4,4,0,0,0,0-8,37.882,37.882,0,0,0-15.622,3.288,37.729,37.729,0,0,1-23.414,2.422,47.048,47.048,0,0,1-9.985-3.243c-4.929-2.614-7.839-8.175-9.137-11.26a25.487,25.487,0,0,0-4.791-7.433c.662-.139,1.332-.29,2.019-.469a34.461,34.461,0,0,1,8.661-1.087h7.676a4,4,0,0,0,0-8h-7.676a42.452,42.452,0,0,0-10.673,1.344,35.158,35.158,0,0,1-12.287,1.031c-.107-.016-.255-.03-.363-.037a12.585,12.585,0,0,1-7.584-3.731,4,4,0,0,0-5.836,5.472,19.857,19.857,0,0,0,7.34,4.906c-6.81,13.887-9.042,25.271-9.664,32.638a20.539,20.539,0,0,0,7.159,17.287c.473.405.912.8,1.315,1.188a5.509,5.509,0,0,1-3.014,9.423c-10.912,1.57-19.083,7.451-24.016,12.108a3.275,3.275,0,0,1-4.1.264,3.327,3.327,0,0,1-1.323-3.508c2.133-9.183,10.2-16.167,10.275-16.231a4,4,0,0,0,1.216-4.291c-7.964-24.424-7.765-48.275-6.938-60.319a21.109,21.109,0,0,1,6.135-13.481l2.537-2.538c2.785-2.785,5.572-5.861,8.282-9.142,9.644-11.673,19.08-13.939,20.874-14.275.908-.17,2.418-.5,3.428-.766,7.194-1.924,15.158-5.681,20.572-8.494a88.384,88.384,0,0,0,9.159-5.593,61.135,61.135,0,0,1,11.356-6.027,4,4,0,1,0-3.022-7.407,69.2,69.2,0,0,0-12.842,6.825,80.556,80.556,0,0,1-8.34,5.1C96.964,93.16,89.57,96.659,83.075,98.4c-.753.2-2.074.489-2.835.631-3.188.6-14.454,3.591-25.569,17.044-2.55,3.087-5.164,5.973-7.771,8.58l-2.537,2.538a29.1,29.1,0,0,0-8.458,18.589c-.841,12.227-1.058,36.079,6.547,60.93-3.09,3.139-8.895,9.963-10.913,18.651a11.548,11.548,0,0,0-.29,2.909c-1.338,1.256-2.665,2.542-3.945,3.875a29.314,29.314,0,0,0-7.53,26.382C22.7,272.447,28.813,291.649,41.475,307.3Zm54.9-106.2a10.064,10.064,0,0,1,1.859-1.853,4.969,4.969,0,0,1,2.947-.969c.01,0,.02,0,.031,0s.03,0,.046,0a4.358,4.358,0,0,1,.812.081,2.39,2.39,0,0,1,1.708,1.122,59.072,59.072,0,0,0,3.164,5.045,37.581,37.581,0,0,0-6.879,19.537,68.364,68.364,0,0,1-5.286-11.448A12.286,12.286,0,0,1,96.378,201.094Zm17.128,108.393-8.446-5.281,4.559-6.591a4,4,0,0,0-.708-5.331l-8.177-6.909,7.444-11.451a4,4,0,0,0-1.119-5.5l-10.12-6.818,9.015-17.127c.865.842,1.754,1.68,2.689,2.5,1.59,1.4,3.248,2.718,4.945,3.98l-1.7,3a4,4,0,0,0,.915,5.041l9.854,8.239-7.825,11.436a4,4,0,0,0,.814,5.39l9.666,7.682Zm58.738,15.318-8.436-5.334,3.3-4.835a4,4,0,0,0-1.111-5.6l-8.49-5.564,7.239-11.014a4,4,0,0,0-1.092-5.5L153.5,280.032l.719-1.44a4,4,0,1,0-7.156-3.575l-2.281,4.567a4,4,0,0,0,1.327,5.094l9.8,6.673-1.707,2.6c-9.577-1.273-16.539-3.345-21.223-6.314l-9.439-7.5,7.773-11.36a4,4,0,0,0-.736-5.328l-8.126-6.794c13.309,7.305,29.226,11.013,47.554,11.013.456,0,.9-.019,1.353-.024L167.31,274.7a4,4,0,0,0,1.384,5.4l10.224,6.251-6.787,9.816a4,4,0,0,0-.579.838l-.173.249a4,4,0,0,0,1.205,5.689l10.084,6.158Zm-37.092-97.526a83.977,83.977,0,0,0,28.715,6.955c-.336,5.016-.179,13.371,3.286,21.088a4,4,0,0,0,7.3-3.278c-2.861-6.371-2.872-13.583-2.568-17.649a88.252,88.252,0,0,0,19.723-2.672c1.352,5.94,4.749,16.171,12.717,22.218-9.33,3.509-20.624,5.722-34.323,5.722a102.565,102.565,0,0,1-27.142-3.4C133.6,246.311,134.054,233.832,135.152,227.279Zm82.78-7.688a23.644,23.644,0,0,0,16.283,12.859,66.745,66.745,0,0,1-5.164,5.776c-.057.049-.121.084-.177.136-.086.081-.15.175-.228.261a67.43,67.43,0,0,1-15.283,11.224c-9.28-3.317-12.858-14.864-14.071-20.481A75.625,75.625,0,0,0,217.932,219.591Zm-14.673,47.954,8.7,8.057-8.843,9.867a3.956,3.956,0,0,0-.553,4.525,89.816,89.816,0,0,1-19.384,4.262l4.729-6.839a4,4,0,0,0-1.2-5.688l-10.517-6.43,4.646-8.108a101.468,101.468,0,0,0,21.462-4.1A3.989,3.989,0,0,0,203.259,267.545Zm32.2,6.535-9.078,9.66a4,4,0,0,0,.346,5.805l9.055,7.589-12.645,13.982-7.549-6.53,3.986-4.29a4,4,0,0,0-.264-5.7l-7.568-6.765,8.8-9.814a4,4,0,0,0-.26-5.605l-8.953-8.292,5.088-6.851a76.289,76.289,0,0,0,14.943-10.277c.023-.021.044-.042.068-.063l2.874,3.062-8.585,10.844a4,4,0,0,0,.565,5.547Zm15.421-105.207a17.073,17.073,0,0,1,8.343-8.84c6.761,13.353,8.906,24.156,9.49,31.046a12.522,12.522,0,0,1-4.385,10.529c-.594.508-1.143,1.008-1.646,1.489a13.109,13.109,0,0,0-.985,1.059,80.33,80.33,0,0,0-8.36-1.031,19.176,19.176,0,0,0-3.392-6.932h0a18.208,18.208,0,0,0-3.329-3.311,12.616,12.616,0,0,0-3.733-1.945,23.153,23.153,0,0,0-.827-6.089c-.28-1.02-.574-1.935-.855-2.727C246.106,178.382,249.131,173.031,250.881,168.873ZM236.2,199.526a2.5,2.5,0,0,1,1.785-1.161,4.9,4.9,0,0,1,3.783.876,10.163,10.163,0,0,1,1.859,1.854,12.289,12.289,0,0,1,1.6,11.522,68.749,68.749,0,0,1-5.852,12.392,15.74,15.74,0,0,1-15.014-10.674A62.669,62.669,0,0,0,236.2,199.526ZM127.751,223.483c-1.2,5.43-2.668,16.908,2.5,28.19a70.168,70.168,0,0,1-9.054-5.079,4.1,4.1,0,0,0-.385-.273c-.011-.006-.022-.008-.033-.014a66.771,66.771,0,0,1-11.487-9.788c-3.22-12.27.182-20.954,2.9-25.463A67.616,67.616,0,0,0,127.751,223.483Zm-56.465-32.4c.583-6.888,2.729-17.69,9.491-31.046a17.068,17.068,0,0,1,8.342,8.84c1.749,4.157,4.773,9.509,9.679,13.247-.281.792-.575,1.707-.855,2.727a23.212,23.212,0,0,0-.827,6.085,12.671,12.671,0,0,0-3.732,1.949,18.12,18.12,0,0,0-3.329,3.312,19.166,19.166,0,0,0-3.393,6.931,80.865,80.865,0,0,0-8.36,1.031,13.579,13.579,0,0,0-.982-1.056c-.5-.483-1.055-.983-1.649-1.49A12.525,12.525,0,0,1,71.286,191.079Z"/><path d="M136.253,74.953a20.677,20.677,0,0,0-.555,2.269,98.234,98.234,0,0,0-1.467,13.989c-.308,2.662-2.661,27.741,15.826,41.894a4,4,0,0,0,4.863-6.352c-6.276-4.805-9.555-11.412-11.238-17.575,5.164,3.477,13.673,7.158,26.6,7.158,12.627,0,21.034-3.513,26.21-6.9a33.269,33.269,0,0,1-11.412,17.314,4,4,0,0,0,4.864,6.352c18.548-14.2,16.63-39.049,16.4-41.43,0-.064,0-.127,0-.191a97.567,97.567,0,0,0-1.476-14.255,20.63,20.63,0,0,0-.556-2.276,20.052,20.052,0,0,0,9.735-7.905,14.676,14.676,0,0,0-11.408-22.626l-.2-.016a5.282,5.282,0,0,1-3.278-1.748L188.383,31.092a19.349,19.349,0,1,0-36.612.442L141.407,42.659a5.271,5.271,0,0,1-3.27,1.746l-.21.017a14.675,14.675,0,0,0-11.408,22.626A20.051,20.051,0,0,0,136.253,74.953ZM193.43,101.83c-3.972,2.968-11.211,6.506-23.148,6.506-12.005,0-19.266-3.577-23.242-6.578a12.271,12.271,0,0,1-4.819-10.124,89.522,89.522,0,0,1,1.354-13.01,12.974,12.974,0,0,1,3.959-7.237A131.162,131.162,0,0,1,160.6,60.828a16.772,16.772,0,0,1,19.355,0,131.5,131.5,0,0,1,13.027,10.519,13.058,13.058,0,0,1,4,7.284h0a89.371,89.371,0,0,1,1.355,13.06A12.278,12.278,0,0,1,193.43,101.83ZM170,13.723a11.361,11.361,0,0,1,11.348,11.348,11.5,11.5,0,0,1-.15,1.758,38.279,38.279,0,0,0-10.917-1.566,37.822,37.822,0,0,0-11.447,1.745,11.494,11.494,0,0,1-.182-1.937A11.361,11.361,0,0,1,170,13.723ZM133.44,55.138a6.648,6.648,0,0,1,4.981-2.731c.166-.011.33-.024.5-.04a13.253,13.253,0,0,0,8.343-4.256l10.92-11.722c1.372-1.505,5.743-3.125,12.1-3.126s10.731,1.62,12.132,3.157L193.3,48.11a13.254,13.254,0,0,0,8.351,4.257c.161.016.325.029.491.04a6.676,6.676,0,0,1,5.2,10.266,12.124,12.124,0,0,1-6.783,5.116,20.8,20.8,0,0,0-2.168-2.334,137.67,137.67,0,0,0-13.833-11.169,24.772,24.772,0,0,0-28.567,0A137.553,137.553,0,0,0,142.118,65.5a20.53,20.53,0,0,0-2.124,2.289,12.124,12.124,0,0,1-6.778-5.115A6.677,6.677,0,0,1,133.44,55.138Z"/><path d="M182.327,91.982a25.83,25.83,0,0,0-22.957.081,4,4,0,0,0,3.862,7.006,17.707,17.707,0,0,1,15.517.068,4,4,0,1,0,3.578-7.155Z"/><path d="M161.571,81.347a4,4,0,0,0,1.853-7.547,12.348,12.348,0,0,0-10.016-1l3.008,7.413a1.162,1.162,0,0,1-.143.054,4.835,4.835,0,0,1,3.45.626A3.992,3.992,0,0,0,161.571,81.347Z"/><path d="M178.427,73.8a4,4,0,1,0,3.7,7.093,4.836,4.836,0,0,1,3.45-.626,1.162,1.162,0,0,1-.143-.054l3.008-7.413A12.348,12.348,0,0,0,178.427,73.8Z"/></svg>